# xmcd CD database file
#
# Track frame offsets:
#	225
#	15027
#	32046
#	45679
#	60140
#	73188
#	85439
#	100170
#	114123
#	128856
#	142347
#	159481
#	174474
#	184232
#	199016
#	211377
#	223259
#	236809
#
# Disc length: 3300 seconds
#
# Revision: 0
# Processed by: cddbd v1.4PL0 Copyright (c) Steve Scherf et al.
# Submitted via: Feurio! 1.66 - http://www.feurio.com
#
DISCID=010ce112
DTITLE=Jahrtausendhits - Party 3
DYEAR=1900
DGENRE=
TTITLE0=Mühltaler Musikanten - Zillertaler Hochzeiotsmarsch
TTITLE1=Goldried Quintett - Der Paul Und Sein Gaul
TTITLE2=Mühltaler Musikanten - Wochenend and Sonnenschein Potpourri
TTITLE3=Joe Raphael and Die Party Singers - Rosamunde, Schützeninsel, Anneliese
TTITLE4=Joe Raphael and Die Party Singers - In München Steht Ein Hofbräuhaus, 
TTITLE4=Kufsteinerlied, Schneewalzer
TTITLE5=Joe Raphael and Die Party Singers - La Bostella, Eviva Espania, Schöne 
TTITLE5=Maid
TTITLE6=Joe Raphael and Die Party Singers - Wir Versaufen Unser Oma Ihr Klein´ 
TTITLE6=Häuschenschnaps Das War Sein Letztes Wort, Flascherl Wein
TTITLE7=Mühltaler Musikanten - Olé Olé
TTITLE8=Joe Raphael and Die Party Singers - Marschlieder Potpourri
TTITLE9=Joe Raphael and Die Party Singers - Schunkelwalzer
TTITLE10=Joe Raphael and Die Party Singers - O Du Lieber Augustin, Sabinchen War 
TTITLE10=Ein Frauenzimmer, Trink Trink, Ein Prosit Der Gemütlichkeit
TTITLE11=Mühltaler Musikanten - Frau Wirtin, Rhytmusmelodie, Frau Meier, Guten 
TTITLE11=Morgen
TTITLE12=Joe Raphael and Die Party Singers - Erika, Lore Lore, Schön Blüh´n Die 
TTITLE12=Heckenrosen
TTITLE13=Joe Raphael and Die Party Singers - Im Golf Von Biskaya, Schön Ist Die 
TTITLE13=Liebe Im Hafen, Hein Spielt Auf, Auf Der Reeperbahn...
TTITLE14=Joe Raphael and Die Party Singers - Wenn Die Soldaten, Oh Du Schöner 
TTITLE14=Westerwald, Es Wollt´ Ein Mädel Früh Aufsteh´n
TTITLE15=Joe Raphael and Die Party Singers - Lustig Ist Das Zigeunerleben, Du-du 
TTITLE15=Liegst Mir Am Herzen, Geh´n Wir Mal Rüber
TTITLE16=Joe Raphael and Die Party Singers - Es Giebt Kein Bier Auf Hawaii, Der 
TTITLE16=Mann Am Klavier
TTITLE17=Mühltaler Musikanten - Lichtensteinerpolka
EXTD=
EXTT0=
EXTT1=
EXTT2=
EXTT3=
EXTT4=
EXTT5=
EXTT6=
EXTT7=
EXTT8=
EXTT9=
EXTT10=
EXTT11=
EXTT12=
EXTT13=
EXTT14=
EXTT15=
EXTT16=
EXTT17=
PLAYORDER=
